<svg width="129" height="35" viewBox="0 0 129 35" fill="none" xmlns="http://www.w3.org/2000/svg">
<path d="M0.876421 27.2301V1.0483H10.2088C12.2457 1.0483 13.9332 1.41903 15.2713 2.16051C16.6094 2.90199 17.6108 3.91619 18.2756 5.20312C18.9403 6.48153 19.2727 7.92188 19.2727 9.52415C19.2727 11.1349 18.9361 12.5838 18.2628 13.8707C17.598 15.1491 16.5923 16.1634 15.2457 16.9134C13.9077 17.6548 12.2244 18.0256 10.196 18.0256H3.77841V14.6761H9.83807C11.125 14.6761 12.169 14.4545 12.9702 14.0114C13.7713 13.5597 14.3594 12.946 14.7344 12.1705C15.1094 11.3949 15.2969 10.5128 15.2969 9.52415C15.2969 8.53551 15.1094 7.65767 14.7344 6.89062C14.3594 6.12358 13.767 5.52273 12.9574 5.08807C12.1562 4.65341 11.0994 4.43608 9.78693 4.43608H4.82671V27.2301H0.876421Z" fill="black"/>
<path d="M20.3569 27.2301V7.59375H24.0515V10.7131H24.2561C24.614 9.65625 25.2447 8.82528 26.1481 8.22017C27.0601 7.60653 28.0913 7.29972 29.2419 7.29972C29.4805 7.29972 29.7618 7.30824 30.0856 7.32528C30.418 7.34233 30.678 7.36364 30.8655 7.3892V11.0455C30.7121 11.0028 30.4393 10.956 30.0473 10.9048C29.6552 10.8452 29.2632 10.8153 28.8712 10.8153C27.9677 10.8153 27.1623 11.0071 26.455 11.3906C25.7561 11.7656 25.2021 12.2898 24.793 12.9631C24.3839 13.6278 24.1794 14.3864 24.1794 15.2386V27.2301H20.3569Z" fill="black"/>
<path d="M38.5015 27.6264C36.6606 27.6264 35.0541 27.2045 33.6819 26.3608C32.3098 25.517 31.2444 24.3366 30.4859 22.8196C29.7274 21.3026 29.3481 19.5298 29.3481 17.5014C29.3481 15.4645 29.7274 13.6832 30.4859 12.1577C31.2444 10.6321 32.3098 9.44744 33.6819 8.60369C35.0541 7.75994 36.6606 7.33807 38.5015 7.33807C40.3424 7.33807 41.949 7.75994 43.3211 8.60369C44.6933 9.44744 45.7586 10.6321 46.5172 12.1577C47.2757 13.6832 47.6549 15.4645 47.6549 17.5014C47.6549 19.5298 47.2757 21.3026 46.5172 22.8196C45.7586 24.3366 44.6933 25.517 43.3211 26.3608C41.949 27.2045 40.3424 27.6264 38.5015 27.6264ZM38.5143 24.4176C39.7075 24.4176 40.6961 24.1023 41.4802 23.4716C42.2643 22.8409 42.8439 22.0014 43.2189 20.9531C43.6024 19.9048 43.7941 18.75 43.7941 17.4886C43.7941 16.2358 43.6024 15.0852 43.2189 14.0369C42.8439 12.9801 42.2643 12.1321 41.4802 11.4929C40.6961 10.8537 39.7075 10.5341 38.5143 10.5341C37.3126 10.5341 36.3155 10.8537 35.5228 11.4929C34.7387 12.1321 34.1549 12.9801 33.7714 14.0369C33.3964 15.0852 33.2089 16.2358 33.2089 17.4886C33.2089 18.75 33.3964 19.9048 33.7714 20.9531C34.1549 22.0014 34.7387 22.8409 35.5228 23.4716C36.3155 24.1023 37.3126 24.4176 38.5143 24.4176Z" fill="black"/>
<path d="M48.6816 27.2301V7.59375H52.3507V10.7898H52.5936C53.0027 9.70739 53.6717 8.86364 54.6007 8.25852C55.5296 7.64489 56.6419 7.33807 57.9373 7.33807C59.2498 7.33807 60.3492 7.64489 61.2356 8.25852C62.1305 8.87216 62.791 9.71591 63.2171 10.7898H63.4217C63.8904 9.74148 64.6362 8.90625 65.6589 8.28409C66.6816 7.65341 67.9004 7.33807 69.3152 7.33807C71.0964 7.33807 72.5495 7.89631 73.6745 9.01278C74.8081 10.1293 75.3748 11.8125 75.3748 14.0625V27.2301H71.5524V14.4205C71.5524 13.0909 71.1902 12.1278 70.4657 11.5312C69.7413 10.9347 68.8762 10.6364 67.8706 10.6364C66.6262 10.6364 65.6589 11.0199 64.9686 11.7869C64.2782 12.5455 63.9331 13.5213 63.9331 14.7145V27.2301H60.1234V14.1776C60.1234 13.1122 59.791 12.2557 59.1262 11.608C58.4615 10.9602 57.5964 10.6364 56.5311 10.6364C55.8066 10.6364 55.1376 10.8281 54.524 11.2116C53.9188 11.5866 53.4288 12.1108 53.0538 12.7841C52.6873 13.4574 52.5041 14.2372 52.5041 15.1236V27.2301H48.6816Z" fill="black"/>
<path d="M77.258 34.5938V7.59375H80.991V10.777H81.3106C81.5322 10.3679 81.8518 9.89489 82.2694 9.35795C82.687 8.82102 83.2666 8.35227 84.008 7.9517C84.7495 7.54261 85.7296 7.33807 86.9484 7.33807C88.5336 7.33807 89.9484 7.73864 91.1927 8.53977C92.437 9.34091 93.4129 10.4957 94.1203 12.0043C94.8362 13.5128 95.1941 15.3281 95.1941 17.4503C95.1941 19.5724 94.8404 21.392 94.133 22.9091C93.4257 24.4176 92.4541 25.581 91.2183 26.3991C89.9825 27.2088 88.572 27.6136 86.9867 27.6136C85.7936 27.6136 84.8177 27.4134 84.0592 27.0128C83.3092 26.6122 82.7211 26.1435 82.295 25.6065C81.8688 25.0696 81.5407 24.5923 81.3106 24.1747H81.0805V34.5938H77.258ZM81.0038 17.4119C81.0038 18.7926 81.2041 20.0028 81.6046 21.0426C82.0052 22.0824 82.5847 22.8963 83.3433 23.4844C84.1018 24.0639 85.0308 24.3537 86.1302 24.3537C87.2722 24.3537 88.2268 24.0511 88.9938 23.446C89.7609 22.8324 90.3404 22.0014 90.7325 20.9531C91.133 19.9048 91.3333 18.7244 91.3333 17.4119C91.3333 16.1165 91.1373 14.9531 90.7453 13.9219C90.3617 12.8906 89.7822 12.0767 89.0066 11.4801C88.2396 10.8835 87.2808 10.5852 86.1302 10.5852C85.0222 10.5852 84.0847 10.8707 83.3177 11.4418C82.5592 12.0128 81.9839 12.8097 81.5918 13.8324C81.1998 14.8551 81.0038 16.0483 81.0038 17.4119Z" fill="black"/>
<path d="M105.403 7.59375V10.6619H94.6771V7.59375H105.403ZM97.5536 2.8892H101.376V21.4645C101.376 22.206 101.487 22.7642 101.708 23.1392C101.93 23.5057 102.215 23.7571 102.565 23.8935C102.923 24.0213 103.311 24.0852 103.728 24.0852C104.035 24.0852 104.304 24.0639 104.534 24.0213C104.764 23.9787 104.943 23.9446 105.071 23.919L105.761 27.0767C105.539 27.1619 105.224 27.2472 104.815 27.3324C104.406 27.4261 103.894 27.4773 103.281 27.4858C102.275 27.5028 101.338 27.3239 100.468 26.9489C99.599 26.5739 98.8959 25.9943 98.3589 25.2102C97.822 24.4261 97.5536 23.4418 97.5536 22.2571V2.8892Z" fill="black"/>
<path d="M106.391 27.2301V7.59375H110.214V27.2301H106.391ZM108.322 4.56392C107.657 4.56392 107.086 4.34233 106.609 3.89915C106.14 3.44744 105.906 2.91051 105.906 2.28835C105.906 1.65767 106.14 1.12074 106.609 0.677556C107.086 0.225852 107.657 0 108.322 0C108.986 0 109.553 0.225852 110.022 0.677556C110.499 1.12074 110.738 1.65767 110.738 2.28835C110.738 2.91051 110.499 3.44744 110.022 3.89915C109.553 4.34233 108.986 4.56392 108.322 4.56392Z" fill="black"/>
<path d="M115.939 15.571V27.2301H112.116V7.59375H115.785V10.7898H116.028C116.48 9.75 117.187 8.91477 118.15 8.28409C119.122 7.65341 120.345 7.33807 121.819 7.33807C123.157 7.33807 124.329 7.61932 125.335 8.18182C126.341 8.7358 127.12 9.5625 127.674 10.6619C128.228 11.7614 128.505 13.1207 128.505 14.7401V27.2301H124.683V15.2003C124.683 13.777 124.312 12.6648 123.571 11.8636C122.829 11.054 121.811 10.6491 120.515 10.6491C119.629 10.6491 118.841 10.8409 118.15 11.2244C117.468 11.608 116.927 12.1705 116.527 12.9119C116.135 13.6449 115.939 14.5313 115.939 15.571Z" fill="black"/>
</svg>
