<svg width="12" height="8" viewBox="0 0 12 8" fill="none" xmlns="http://www.w3.org/2000/svg">
<path d="M6.22363 7.34619C5.97754 7.34619 5.77246 7.25049 5.57422 7.05908L0.686523 2.05518C0.529297 1.89795 0.447266 1.70654 0.447266 1.48096C0.447266 1.01611 0.80957 0.653809 1.26758 0.653809C1.49316 0.653809 1.70508 0.749512 1.8623 0.906738L6.23047 5.38428L10.585 0.906738C10.749 0.749512 10.9609 0.653809 11.1797 0.653809C11.6377 0.653809 12 1.01611 12 1.48096C12 1.70654 11.918 1.89795 11.7676 2.05518L6.87305 7.05225C6.68848 7.25049 6.47656 7.34619 6.22363 7.34619Z" fill="black"/>
</svg>
